<mxfile host="app.diagrams.net" modified="2023-10-19T08:30:01.996Z" agent="Mozilla/5.0 (Windows NT 10.0; Win64; x64) AppleWebKit/537.36 (KHTML, like Gecko) Chrome/118.0.0.0 Safari/537.36" etag="nOPn6b95MEKbO9DSo5cd" version="22.0.5" type="github">
  <diagram name="第 1 页" id="RoyavSxoEmC1K4mCKGkM">
    <mxGraphModel dx="1050" dy="542" grid="1" gridSize="10" guides="1" tooltips="1" connect="1" arrows="1" fold="1" page="1" pageScale="1" pageWidth="827" pageHeight="1169" math="0" shadow="0">
      <root>
        <mxCell id="0" />
        <mxCell id="1" parent="0" />
        <mxCell id="z1Xo_73ZO5LLBM_MsGn0-4" value="" style="edgeStyle=orthogonalEdgeStyle;rounded=0;orthogonalLoop=1;jettySize=auto;html=1;" edge="1" parent="1" source="z1Xo_73ZO5LLBM_MsGn0-1" target="z1Xo_73ZO5LLBM_MsGn0-3">
          <mxGeometry relative="1" as="geometry" />
        </mxCell>
        <mxCell id="z1Xo_73ZO5LLBM_MsGn0-1" value="&lt;pre style=&quot;background-color:#ffffff;color:#080808;font-family:&#39;Microsoft YaHei UI&#39;;font-size:9.0pt;&quot;&gt;{&lt;br&gt;  &lt;span style=&quot;color:#871094;&quot;&gt;&quot;takeGoodsDetailsIds&quot;&lt;/span&gt;: &lt;span style=&quot;color:#067d17;&quot;&gt;&quot;订单商品ID，多个逗号隔开&quot;&lt;/span&gt;,&lt;br&gt;  &lt;span style=&quot;color:#871094;&quot;&gt;&quot;goodsPrice&quot;&lt;/span&gt;: &lt;span style=&quot;color:#067d17;&quot;&gt;&quot;改价金额&quot;&lt;/span&gt;,&lt;br&gt;  &lt;span style=&quot;color:#871094;&quot;&gt;&quot;omsUuid&quot;&lt;/span&gt;: &lt;span style=&quot;color:#067d17;&quot;&gt;&quot;oms uuid,用&#39;,&#39;分割&quot;&lt;/span&gt;,&lt;br&gt;  &lt;span style=&quot;color:#871094;&quot;&gt;&quot;isCommercialTenant&quot;&lt;/span&gt;: &lt;span style=&quot;color:#067d17;&quot;&gt;&quot;是商户app&quot;&lt;/span&gt;,&lt;br&gt;  &lt;span style=&quot;color:#871094;&quot;&gt;&quot;storeId&quot;&lt;/span&gt;: &lt;span style=&quot;color:#067d17;&quot;&gt;&quot;storeId&quot;&lt;/span&gt;,&lt;br&gt;  &lt;span style=&quot;color:#871094;&quot;&gt;&quot;goodsPriceType&quot;&lt;/span&gt;: &lt;span style=&quot;color:#067d17;&quot;&gt;&quot;改价金额类型,0是直接改 1是上调金额 2是下调金额&quot;&lt;br&gt;&lt;/span&gt;}&lt;/pre&gt;" style="text;whiteSpace=wrap;html=1;" vertex="1" parent="1">
          <mxGeometry x="199" y="50" width="430" height="160" as="geometry" />
        </mxCell>
        <mxCell id="z1Xo_73ZO5LLBM_MsGn0-2" value="参数" style="text;html=1;align=center;verticalAlign=middle;resizable=0;points=[];autosize=1;strokeColor=none;fillColor=none;" vertex="1" parent="1">
          <mxGeometry x="380" y="20" width="50" height="30" as="geometry" />
        </mxCell>
        <mxCell id="z1Xo_73ZO5LLBM_MsGn0-3" value="通过订单商品id调用wms查询拿货任务明细" style="whiteSpace=wrap;html=1;" vertex="1" parent="1">
          <mxGeometry x="354" y="340" width="120" height="60" as="geometry" />
        </mxCell>
      </root>
    </mxGraphModel>
  </diagram>
</mxfile>
